<?xml version="1.0" standalone="no"?>
<!DOCTYPE svg PUBLIC "-//W3C//DTD SVG 20010904//EN"
 "http://www.w3.org/TR/2001/REC-SVG-20010904/DTD/svg10.dtd">
<svg version="1.0" xmlns="http://www.w3.org/2000/svg"
 width="460.000000pt" height="460.000000pt" viewBox="0 0 460.000000 460.000000"
 preserveAspectRatio="xMidYMid meet">
<metadata>
Created by potrace 1.15, written by Peter Selinger 2001-2017
</metadata>
<g transform="translate(0.000000,460.000000) scale(0.100000,-0.100000)"
fill="#000000" stroke="none">
<path d="M2060 4206 c-217 -27 -358 -66 -459 -125 -154 -91 -304 -272 -367
-440 -38 -102 -82 -286 -94 -391 -5 -52 -17 -153 -25 -225 -8 -71 -20 -211
-25 -310 -6 -99 -17 -220 -25 -270 -7 -49 -19 -146 -24 -215 -17 -192 -50
-499 -72 -660 -11 -80 -25 -179 -30 -220 -12 -95 -55 -297 -79 -375 -11 -33
-26 -85 -35 -115 -27 -89 -116 -265 -192 -379 -34 -50 -43 -72 -43 -106 0 -64
14 -71 118 -57 107 13 195 50 282 117 84 64 206 181 231 222 12 19 29 33 40
33 16 0 19 -7 19 -48 0 -106 22 -215 56 -282 41 -80 82 -120 154 -150 46 -19
66 -22 125 -17 166 14 245 116 268 349 11 106 15 123 30 122 9 0 60 -1 112 -2
67 -1 97 -6 99 -14 2 -7 13 -73 25 -146 38 -240 104 -302 321 -302 92 0 127
16 180 82 48 60 71 135 77 259 l6 106 199 6 c233 6 248 11 248 80 0 23 -4 69
-10 102 -5 33 -14 103 -20 154 -6 52 -17 127 -25 165 -8 39 -19 105 -24 146
-11 93 -34 254 -86 595 -15 94 -35 211 -45 260 -30 142 -34 187 -18 196 7 5
76 9 153 9 179 0 295 13 418 45 99 26 127 37 274 108 134 65 306 229 326 312
3 11 15 47 28 80 21 54 23 77 23 240 1 172 0 184 -28 270 -32 102 -42 126 -99
244 -33 69 -58 102 -136 181 -114 115 -143 134 -281 187 -127 48 -255 82 -375
98 -49 7 -126 20 -170 28 -44 9 -136 21 -205 27 -69 6 -163 16 -210 21 -143
17 -493 19 -610 5z m770 -181 c240 -27 405 -56 526 -91 45 -13 87 -24 94 -24
23 0 146 -53 188 -81 24 -16 47 -29 51 -29 15 0 156 -150 191 -204 32 -49 47
-78 100 -201 20 -46 50 -194 50 -247 0 -159 -125 -364 -280 -459 -58 -36 -204
-99 -228 -99 -8 0 -45 -9 -83 -20 -99 -30 -354 -60 -505 -60 -88 0 -134 -4
-142 -12 -18 -18 -15 -179 7 -304 11 -60 22 -134 26 -164 4 -30 13 -83 21
-118 8 -34 21 -118 29 -185 8 -67 24 -171 35 -232 11 -60 25 -150 30 -200 5
-49 14 -103 19 -120 14 -40 53 -356 45 -364 -3 -3 -94 -7 -202 -9 -108 -2
-201 -7 -208 -13 -6 -5 -14 -62 -18 -134 -7 -132 -27 -208 -68 -260 -33 -42
-56 -46 -115 -17 -72 35 -89 83 -100 284 -4 89 -10 121 -22 132 -23 20 -483
45 -504 28 -10 -9 -17 -44 -22 -110 -14 -194 -67 -331 -137 -356 -21 -8 -33
-5 -60 13 -62 43 -105 170 -115 341 -8 142 -5 140 -153 140 l-118 0 -38 -48
c-44 -54 -166 -174 -207 -204 l-28 -20 22 54 c12 29 28 73 36 98 8 25 23 66
34 92 10 26 19 54 19 63 0 8 10 44 21 78 19 56 54 228 80 397 5 36 16 106 24
155 8 50 21 160 30 245 8 85 24 227 35 315 26 208 57 514 70 690 6 77 15 174
21 215 5 41 16 125 24 185 30 222 81 405 149 526 31 54 175 201 226 228 143
78 261 115 420 131 136 14 492 1 730 -25z"/>
<path d="M2295 3791 c-149 -13 -313 -69 -386 -133 -34 -30 -75 -101 -94 -164
-30 -99 -13 -241 42 -346 23 -44 125 -148 145 -148 5 0 21 -9 36 -19 33 -24
143 -54 279 -76 132 -22 472 -17 543 8 141 48 221 96 276 164 37 46 44 61 59
149 16 86 17 108 6 173 -15 85 -52 153 -117 211 -42 38 -207 123 -270 139 -22
6 -66 17 -99 26 -71 18 -294 27 -420 16z m-37 -243 c-23 -116 -25 -380 -2
-455 5 -19 3 -23 -18 -23 -70 0 -123 26 -199 99 -69 65 -78 78 -84 119 -4 26
-11 54 -16 63 -8 15 0 52 22 104 22 51 70 102 104 111 13 3 29 12 36 20 6 8
20 14 30 14 10 0 21 5 24 10 3 6 19 10 35 10 16 0 31 4 35 10 3 5 12 7 20 3 8
-3 15 0 15 7 0 6 4 9 8 6 5 -3 1 -47 -10 -98z m635 -5 c4 -7 14 -13 21 -13 7
0 25 -13 41 -30 16 -16 34 -30 39 -30 6 0 24 -26 40 -59 25 -53 28 -65 21
-120 -5 -41 -15 -71 -29 -89 -13 -15 -25 -35 -29 -44 -3 -10 -11 -18 -18 -18
-6 0 -24 -11 -41 -25 -16 -14 -40 -25 -53 -25 -13 0 -31 -10 -39 -22 -12 -16
-28 -22 -72 -26 -53 -4 -57 -3 -50 14 4 11 10 27 12 37 2 9 6 27 10 40 16 66
25 168 27 299 2 115 4 128 20 128 9 0 17 7 17 15 0 13 5 12 38 -3 20 -9 41
-23 45 -29z"/>
</g>
</svg>
