<?xml version="1.0" standalone="no"?>
<!DOCTYPE svg PUBLIC "-//W3C//DTD SVG 20010904//EN"
 "http://www.w3.org/TR/2001/REC-SVG-20010904/DTD/svg10.dtd">
<svg version="1.0" xmlns="http://www.w3.org/2000/svg"
 width="460.000000pt" height="460.000000pt" viewBox="0 0 460.000000 460.000000"
 preserveAspectRatio="xMidYMid meet">
<metadata>
Created by potrace 1.15, written by Peter Selinger 2001-2017
</metadata>
<g transform="translate(0.000000,460.000000) scale(0.100000,-0.100000)"
fill="#000000" stroke="none">
<path d="M2070 4175 c-223 -29 -346 -64 -450 -125 -150 -88 -296 -263 -357
-430 -37 -101 -81 -286 -93 -390 -5 -52 -17 -149 -25 -215 -8 -66 -20 -205
-25 -310 -6 -104 -17 -230 -25 -280 -8 -49 -19 -148 -25 -220 -18 -201 -69
-660 -84 -755 -8 -47 -17 -112 -21 -145 -3 -33 -13 -86 -21 -117 -8 -32 -19
-81 -24 -110 -6 -29 -19 -82 -29 -118 -11 -36 -27 -90 -36 -120 -27 -88 -116
-265 -192 -379 -42 -62 -53 -103 -33 -116 18 -11 143 14 210 42 36 16 91 48
124 72 78 58 197 171 231 221 25 36 32 40 71 40 l44 0 0 -62 c0 -94 26 -227
54 -281 53 -103 155 -165 251 -153 144 17 217 116 236 321 17 174 5 158 107
151 180 -13 192 -15 196 -39 2 -12 14 -81 27 -154 20 -119 25 -136 58 -180 48
-64 92 -84 197 -91 99 -6 134 8 186 72 46 58 69 134 75 257 l6 107 51 6 c28 3
94 6 146 6 123 1 227 13 242 28 12 12 -6 182 -39 372 -8 47 -21 130 -28 185
-12 90 -21 149 -55 380 -32 218 -72 465 -80 495 -14 52 -40 233 -34 239 2 2
106 8 230 12 193 7 243 12 333 34 181 45 355 128 471 227 94 80 135 140 175
253 26 74 28 91 29 240 1 149 -1 166 -27 250 -16 50 -40 117 -54 150 -26 61
-28 66 -66 138 -11 23 -66 86 -122 142 -74 74 -117 108 -165 132 -79 38 -192
80 -240 88 -19 4 -64 15 -100 25 -36 10 -92 21 -125 25 -33 3 -105 14 -160 25
-55 10 -156 24 -225 31 -69 6 -159 15 -200 20 -143 17 -478 19 -590 4z m680
-110 c63 -8 160 -19 215 -25 89 -9 399 -65 415 -75 4 -2 41 -13 84 -25 65 -17
152 -56 238 -106 31 -18 120 -106 169 -165 41 -51 92 -144 137 -249 23 -53 52
-206 52 -272 0 -132 -66 -282 -170 -388 -81 -83 -150 -127 -260 -167 -200 -73
-363 -102 -640 -112 l-175 -6 -3 -73 c-2 -42 6 -121 17 -185 11 -62 23 -139
26 -172 4 -33 15 -98 25 -145 10 -47 21 -116 24 -155 4 -38 20 -146 36 -240
15 -93 33 -201 38 -240 17 -117 41 -274 58 -378 9 -54 13 -102 9 -105 -4 -4
-102 -9 -218 -12 l-212 -5 -3 -55 c-9 -192 -35 -296 -89 -352 -40 -42 -73 -44
-148 -10 -62 29 -65 32 -79 84 -21 71 -36 178 -36 259 0 41 -5 70 -12 76 -17
14 -447 38 -458 27 -5 -5 -12 -47 -15 -94 -18 -247 -83 -380 -186 -380 -104 0
-174 146 -188 389 l-6 106 -104 3 -103 3 -34 -35 c-19 -19 -34 -38 -34 -42 0
-21 -244 -234 -268 -234 -5 0 -15 -7 -22 -15 -25 -30 -28 -14 -5 28 45 86 112
272 174 482 35 120 104 541 126 777 8 84 24 223 35 308 24 192 67 613 75 740
4 52 11 124 16 160 5 36 16 119 25 185 29 227 79 409 146 532 36 64 151 181
231 234 112 74 266 124 432 139 124 11 525 2 665 -15z"/>
<path d="M2315 3761 c-144 -13 -312 -69 -381 -128 -51 -45 -104 -171 -104
-252 0 -57 25 -152 57 -213 23 -44 116 -138 136 -138 4 0 20 -9 35 -19 33 -24
143 -54 280 -76 130 -22 431 -17 502 8 89 31 116 42 164 71 105 62 139 109
161 228 14 74 14 97 4 150 -14 73 -51 138 -107 189 -41 38 -204 122 -268 138
-22 6 -66 17 -99 25 -74 19 -259 27 -380 17z m-55 -202 c-20 -101 -27 -304
-13 -414 2 -22 6 -50 7 -62 1 -13 6 -26 9 -30 15 -15 5 -23 -28 -23 -24 0 -35
5 -35 15 0 8 -6 15 -14 15 -20 0 -136 51 -160 70 -58 46 -94 95 -100 134 -4
22 -12 55 -18 73 -9 24 -9 42 1 75 22 73 33 98 42 98 5 0 9 5 9 11 0 16 53 65
80 74 13 4 30 14 38 21 7 8 22 14 32 14 10 0 22 5 25 10 3 6 19 10 34 10 15 0
31 4 37 9 12 12 57 19 67 10 5 -3 -1 -53 -13 -110z m512 81 c12 -11 29 -20 39
-20 24 0 109 -39 109 -50 0 -6 7 -10 15 -10 8 0 28 -13 43 -30 16 -16 34 -30
41 -30 6 0 17 -12 24 -27 6 -16 15 -30 18 -33 4 -3 14 -27 23 -54 14 -41 15
-58 5 -105 -11 -57 -38 -121 -50 -121 -4 0 -9 -9 -12 -20 -3 -11 -16 -24 -29
-29 -12 -5 -34 -18 -47 -30 -13 -12 -31 -21 -39 -21 -8 0 -38 -11 -66 -24 -52
-24 -204 -48 -159 -25 18 10 42 50 50 84 1 6 5 21 8 35 18 73 26 171 27 310 1
146 -3 173 -28 201 -23 26 1 25 28 -1z"/>
</g>
</svg>
