<?xml version="1.0" standalone="no"?>
<!DOCTYPE svg PUBLIC "-//W3C//DTD SVG 20010904//EN"
 "http://www.w3.org/TR/2001/REC-SVG-20010904/DTD/svg10.dtd">
<svg version="1.0" xmlns="http://www.w3.org/2000/svg"
 width="1149.000000pt" height="575.000000pt" viewBox="0 0 1149.000000 575.000000"
 preserveAspectRatio="xMidYMid meet">

<g transform="translate(0.000000,575.000000) scale(0.100000,-0.100000)"
fill="#000000" stroke="none">
<path d="M7484 4435 c-13 -19 -15 -37 -9 -80 8 -65 17 -61 -165 -70 -193 -9
-743 -57 -1035 -90 -77 -8 -189 -20 -250 -25 -368 -31 -471 -41 -565 -55 -58
-8 -187 -26 -286 -40 -297 -41 -389 -93 -527 -295 -31 -47 -82 -119 -112 -160
-31 -41 -64 -91 -75 -110 -11 -19 -45 -69 -75 -110 -30 -41 -62 -86 -72 -100
-16 -22 -81 -109 -101 -135 -4 -5 -28 -37 -52 -70 -95 -129 -85 -124 -445
-190 -318 -57 -576 -114 -614 -136 -60 -33 -103 -110 -197 -354 -19 -49 -39
-99 -44 -110 -5 -11 -19 -56 -31 -100 -30 -114 -35 -124 -66 -130 -100 -22
-126 -48 -149 -145 -8 -36 -25 -90 -38 -120 -32 -74 -34 -168 -6 -230 16 -34
37 -56 87 -90 37 -25 80 -60 97 -79 45 -48 141 -112 181 -118 42 -7 53 11 52
88 0 66 19 154 41 189 8 13 16 34 18 45 8 78 121 290 197 371 112 120 199 144
568 151 241 5 271 2 432 -43 18 -6 98 -81 152 -144 27 -31 105 -175 105 -194
0 -7 8 -25 65 -152 25 -55 45 -119 45 -145 0 -10 -11 -19 -27 -22 -16 -3 -38
-8 -49 -12 -20 -6 -23 0 -43 77 -56 213 -191 382 -376 472 -129 63 -200 80
-325 79 -127 0 -213 -24 -321 -87 -95 -56 -155 -110 -217 -194 -68 -93 -86
-132 -117 -256 -25 -97 -27 -120 -22 -234 2 -70 10 -143 17 -162 43 -120 117
-243 190 -315 27 -27 50 -53 50 -57 0 -4 -16 -8 -36 -8 -35 0 -114 36 -114 52
0 4 -23 19 -51 34 -40 20 -59 24 -89 19 -33 -6 -41 -12 -59 -53 -12 -26 -31
-61 -44 -78 -12 -18 -30 -46 -39 -63 -9 -17 -21 -31 -25 -31 -4 1 -21 29 -38
63 -16 34 -36 70 -44 80 -16 19 -35 52 -50 82 -5 12 -16 27 -25 34 -9 7 -16
19 -16 26 0 7 -18 27 -39 44 -52 42 -87 41 -137 -5 -21 -19 -56 -50 -78 -67
-21 -18 -60 -49 -85 -70 -62 -51 -130 -118 -142 -139 -5 -10 -16 -18 -23 -18
-17 0 -32 215 -21 306 6 58 5 60 -28 92 -53 51 -88 52 -204 4 -122 -50 -269
-129 -468 -253 -16 -11 -66 -37 -110 -58 l-80 -40 -205 -9 c-113 -5 -329 -9
-480 -11 -151 -1 -290 -4 -308 -8 -43 -7 -26 -19 41 -28 49 -7 53 -20 7 -28
-21 -4 -20 -4 8 -6 57 -2 34 -18 -45 -32 l-78 -13 120 -11 c104 -10 117 -13
95 -23 -19 -9 59 -10 345 -6 657 9 628 8 677 38 24 14 75 46 113 69 39 24 104
63 145 87 41 23 86 50 100 60 14 9 40 25 58 34 59 30 62 21 62 -208 0 -110 4
-217 9 -237 9 -39 71 -105 107 -115 44 -12 131 51 314 226 l179 171 28 -28
c29 -29 103 -128 103 -139 0 -13 92 -142 116 -163 45 -39 70 -46 98 -28 33 22
80 91 112 166 15 34 30 61 35 61 4 0 10 13 14 29 3 16 15 37 26 47 19 17 21
17 52 -7 31 -24 35 -24 217 -22 484 5 860 4 908 -3 45 -6 60 -3 98 17 25 12
52 35 59 50 8 15 37 43 65 63 46 33 52 35 66 21 9 -9 27 -59 40 -113 35 -147
58 -203 95 -235 18 -15 41 -27 51 -27 41 0 93 50 148 141 30 50 67 105 82 123
l27 31 54 -58 c63 -66 80 -69 146 -30 l46 27 900 5 c1188 6 1332 4 1376 -20
32 -16 98 6 143 48 22 22 55 48 71 58 30 18 187 154 193 167 7 15 110 88 125
88 27 0 38 -67 63 -370 8 -101 28 -158 72 -203 29 -30 43 -37 73 -37 32 0 45
8 93 57 31 32 56 60 56 64 0 3 11 18 25 33 14 15 25 33 25 41 0 8 6 18 13 22
13 9 81 94 128 161 16 23 35 42 42 41 6 0 41 -41 77 -90 36 -50 78 -102 93
-115 39 -33 89 -32 116 2 l20 26 823 -4 c843 -3 938 1 801 32 l-58 13 85 19
c47 10 90 20 95 21 6 2 -51 10 -125 18 -122 12 -130 14 -85 20 28 4 75 8 105
9 48 1 52 3 30 11 -39 16 -270 21 -1435 29 l-230 2 -78 80 c-43 44 -89 100
-103 124 -25 43 -102 94 -142 94 -15 0 -15 2 -2 10 23 15 6 12 -25 -4 -44 -23
-114 -93 -176 -176 -32 -44 -67 -83 -77 -89 -17 -9 -20 -6 -25 27 -4 20 -9 80
-12 132 -9 129 -32 250 -52 272 -16 17 -72 38 -104 38 -9 0 -57 -29 -108 -65
-50 -35 -91 -62 -91 -59 0 3 -10 -5 -22 -17 -13 -11 -39 -33 -58 -48 -19 -14
-53 -44 -75 -65 -58 -58 -235 -186 -264 -192 -15 -3 -45 -13 -67 -21 -23 -8
-51 -13 -63 -11 -19 3 -16 9 30 58 57 62 129 178 129 209 0 11 4 22 9 26 14 8
30 95 40 214 9 95 7 113 -14 198 -23 89 -70 200 -101 234 -8 8 -14 19 -14 23
0 9 -43 62 -93 115 -116 121 -349 221 -507 216 -69 -2 -158 -15 -189 -26 -26
-11 -94 -1 -86 11 3 5 -12 14 -32 20 -21 7 -43 17 -50 22 -6 5 -13 5 -15 0 -5
-13 -78 -2 -78 12 0 7 15 20 33 29 17 9 39 21 47 26 19 12 53 25 62 23 4 -1
24 5 45 12 48 17 86 20 303 20 210 1 267 -10 341 -64 58 -42 188 -169 189
-184 0 -5 6 -17 14 -25 14 -16 105 -192 139 -268 9 -22 17 -50 17 -62 0 -12 5
-32 12 -44 14 -27 40 -187 40 -242 -1 -41 9 -55 43 -55 34 0 81 31 157 105 40
39 103 92 139 118 37 25 94 73 128 105 l61 59 0 62 c0 36 4 60 9 56 5 -3 12
-1 15 4 3 5 23 12 43 16 60 11 97 45 112 105 19 75 27 353 27 927 l-1 503 -35
34 c-34 33 -40 35 -150 48 -223 25 -272 13 -310 -77 -10 -24 -23 -45 -28 -49
-18 -11 -42 64 -107 324 -20 80 -49 190 -66 245 -17 55 -37 121 -45 147 -8 26
-14 56 -14 66 0 11 -7 32 -15 48 -21 41 -7 50 88 58 86 7 128 27 97 46 -8 5
-29 10 -46 10 -33 0 -53 24 -28 34 45 17 -26 56 -103 56 -32 0 -63 4 -69 8 -6
4 -19 32 -27 63 -25 86 -70 114 -103 64z m53 -307 c13 -21 33 -81 38 -113 3
-16 16 -65 29 -110 81 -266 196 -828 221 -1076 5 -50 3 -66 -7 -68 -7 -2 -71
-5 -143 -7 -156 -4 -324 -12 -540 -24 -88 -5 -189 -8 -225 -7 -36 0 -110 -2
-165 -6 -55 -3 -262 -9 -460 -12 -198 -3 -448 -8 -555 -10 -107 -2 -357 -7
-555 -10 -369 -6 -886 -28 -1100 -46 -321 -27 -508 -46 -595 -58 -57 -9 -69
-15 -102 -50 -40 -42 -50 -87 -23 -97 15 -6 212 4 620 31 209 13 502 28 810
40 77 3 228 10 335 16 107 5 314 14 460 19 146 6 360 15 475 21 116 6 278 13
360 15 83 2 224 6 315 10 91 3 255 7 365 10 110 2 227 6 260 9 139 13 496 17
509 6 17 -14 41 -333 32 -423 -6 -54 -11 -68 -27 -73 -11 -4 -72 -5 -135 -3
l-117 3 -23 37 c-14 21 -28 38 -32 38 -5 0 -22 20 -40 44 -17 25 -48 56 -69
70 -57 38 -178 77 -252 82 -89 5 -405 5 -461 -1 -89 -10 -111 -13 -138 -20
-15 -4 -51 -8 -79 -10 -29 -2 -64 -10 -77 -17 -14 -7 -45 -24 -70 -36 -25 -13
-46 -28 -46 -32 0 -5 -11 -21 -24 -37 -13 -15 -38 -56 -56 -91 -17 -34 -37
-65 -44 -69 -6 -4 -54 -8 -106 -9 -100 -3 -309 -12 -420 -19 -66 -5 -806 -32
-914 -34 -39 -1 -76 -10 -114 -27 -63 -29 -74 -24 -108 44 -10 20 -27 43 -36
50 -10 7 -18 19 -18 27 0 8 -10 21 -22 29 -12 8 -40 33 -62 54 -23 21 -55 46
-72 55 -60 31 -181 68 -264 81 -204 31 -671 -8 -750 -64 -14 -9 -43 -27 -65
-38 -22 -11 -70 -48 -107 -82 l-67 -61 -73 3 -73 3 1 32 c1 17 9 45 17 62 8
17 18 45 22 63 8 36 84 217 121 287 13 24 24 49 24 56 0 17 61 70 95 83 36 12
77 21 290 62 161 30 181 34 380 70 61 11 125 20 144 20 52 0 119 38 198 115
40 38 73 73 73 77 0 9 147 234 208 318 96 132 260 378 267 400 16 51 134 157
185 166 8 2 58 12 110 23 52 11 118 22 145 26 28 3 93 12 145 20 123 18 331
42 495 55 144 12 335 29 405 36 25 2 105 7 179 9 131 5 134 5 117 -13 -13 -15
-14 -25 -6 -46 24 -65 11 -72 -153 -81 -123 -7 -127 -7 -127 13 0 28 -10 52
-21 52 -6 0 -29 -20 -53 -44 -40 -42 -46 -44 -112 -50 -38 -3 -168 -18 -289
-32 -121 -15 -236 -28 -255 -30 -223 -22 -400 -56 -458 -90 -49 -29 -152 -154
-214 -259 -23 -38 -52 -83 -65 -98 -12 -16 -23 -32 -23 -36 0 -5 -19 -38 -42
-73 -24 -36 -70 -109 -103 -162 -128 -206 -145 -232 -174 -270 -17 -21 -31
-44 -31 -51 0 -19 27 -44 57 -51 29 -8 53 -6 768 41 103 7 401 23 535 30 58 3
141 7 185 10 44 2 134 7 200 11 66 4 145 7 175 8 31 1 60 5 66 8 5 4 48 7 95
8 164 1 355 8 389 14 57 9 305 20 447 21 118 0 134 2 160 21 37 28 50 82 32
138 -7 22 -16 66 -20 96 -4 30 -12 75 -17 100 -6 25 -17 81 -26 125 -8 44 -19
94 -25 110 -14 41 -82 324 -86 355 -2 14 -10 42 -19 62 -14 33 -23 39 -80 57
-70 22 -195 22 -376 1 -47 -5 -110 -10 -141 -10 l-57 0 -20 44 c-12 24 -33 53
-48 65 -20 16 -22 21 -10 21 9 0 58 4 109 10 51 5 133 11 182 14 50 3 126 8
170 11 76 6 321 20 412 24 24 0 45 -4 50 -11z m-381 -299 c22 -6 45 -18 51
-28 14 -22 43 -135 43 -165 0 -12 4 -26 9 -31 9 -11 32 -88 50 -170 7 -27 18
-79 26 -115 8 -36 15 -78 15 -95 1 -16 7 -41 15 -55 19 -33 19 -74 0 -90 -17
-14 -215 -38 -289 -35 -26 1 -49 -2 -52 -7 -7 -11 -112 -10 -119 2 -7 12 -31
97 -46 165 -17 79 -59 266 -70 310 -62 245 -69 283 -55 294 6 4 43 12 81 16
39 4 95 10 125 15 64 9 158 4 216 -11z m-568 -12 c11 -13 35 -116 72 -317 12
-63 26 -137 31 -165 17 -83 41 -238 43 -275 1 -45 -5 -46 -214 -58 -125 -7
-168 -7 -178 2 -13 13 -22 125 -43 553 -9 185 -9 236 1 248 7 8 15 13 19 11 3
-3 31 -1 61 3 102 13 196 13 208 -2z m-461 -74 c7 -5 13 -62 17 -158 3 -83 11
-222 17 -310 6 -88 9 -189 7 -225 l-3 -65 -75 -7 c-41 -3 -214 -16 -385 -27
-170 -11 -431 -29 -580 -40 -148 -11 -309 -20 -357 -20 -104 -1 -107 4 -55 83
76 115 127 196 127 201 0 3 20 36 43 73 24 37 56 90 72 117 36 65 87 136 147
206 53 61 82 74 182 84 33 3 63 8 67 11 8 5 132 21 224 30 33 3 71 7 85 10 14
2 63 9 110 14 47 6 110 14 140 18 81 11 203 13 217 5z m2162 -527 l33 -31 -5
-350 c-10 -571 -25 -876 -45 -904 -23 -32 -34 -31 -52 4 -19 38 -73 92 -125
126 l-40 25 0 265 c0 260 0 265 -24 302 -18 30 -21 40 -11 52 6 8 15 14 18 13
15 -4 102 14 107 21 2 5 -22 11 -55 13 -33 2 -66 10 -72 16 -29 29 5 363 45
450 l20 44 86 -7 c78 -7 89 -10 120 -39z m-5296 -1300 c-2 -21 -11 -52 -22
-70 -21 -35 -38 -87 -51 -162 -16 -97 -51 -194 -68 -194 -18 0 -83 64 -119
115 -40 57 -39 171 3 266 20 46 69 72 149 80 107 11 110 10 108 -35z m3552 34
c2 -4 -26 -36 -63 -71 -123 -116 -197 -246 -230 -404 -8 -39 -9 -40 -47 -40
-37 0 -40 2 -37 25 1 14 6 34 11 45 5 11 19 58 31 105 11 47 32 108 44 135 31
66 51 112 70 158 8 20 16 37 18 37 2 1 32 4 68 7 36 3 66 6 68 8 7 6 62 3 67
-5z m1440 -17 c51 -29 95 -112 95 -183 0 -29 -14 -52 -78 -131 -69 -85 -140
-159 -155 -159 -12 0 -29 72 -37 157 -5 56 -16 107 -27 130 -60 118 -87 186
-77 195 9 10 261 1 279 -9z m-1845 -33 c0 -11 -12 -54 -26 -97 -14 -43 -34
-109 -44 -148 -11 -38 -28 -101 -38 -140 l-20 -70 -623 4 c-514 3 -627 6 -640
17 -9 8 -21 46 -28 87 -14 85 -24 126 -58 225 -13 41 -22 77 -19 80 4 3 20 -7
36 -23 23 -22 39 -29 68 -28 62 1 282 22 290 27 5 3 51 8 103 11 52 3 110 8
129 10 51 7 240 24 350 31 52 4 154 12 225 19 72 7 167 13 213 14 75 1 82 -1
82 -19z m-2247 -14 c141 -33 236 -97 339 -226 55 -70 99 -209 105 -337 8 -150
-41 -280 -149 -393 -80 -84 -128 -113 -237 -146 -69 -21 -213 -21 -274 0 -193
67 -348 239 -387 429 -21 105 -14 239 17 316 77 192 210 316 382 355 79 18
132 18 204 2z m3178 -28 c127 -34 224 -107 300 -228 71 -111 79 -128 79 -156
0 -14 7 -36 16 -50 13 -19 17 -48 16 -127 -1 -56 -4 -111 -6 -122 -3 -11 -9
-36 -14 -56 -5 -20 -26 -68 -47 -107 -65 -124 -202 -230 -335 -261 -219 -51
-458 64 -584 279 -40 67 -94 246 -83 274 4 11 20 16 49 17 66 0 113 20 112 46
0 17 7 23 33 28 62 11 23 25 -71 25 -122 0 -125 4 -92 104 32 95 64 146 134
214 50 50 121 101 146 107 6 1 18 5 26 8 72 29 222 32 321 5z m-2511 -523 c14
-19 40 -42 58 -52 18 -10 40 -28 48 -40 19 -30 23 -29 75 11 l44 34 175 6 c96
3 324 8 505 11 182 3 365 8 409 10 98 6 116 -3 116 -56 0 -42 18 -87 44 -108
38 -32 97 31 99 105 0 48 5 53 53 58 39 3 54 -10 54 -50 0 -70 55 -244 97
-307 16 -23 35 -55 43 -71 8 -16 34 -51 58 -77 23 -26 39 -50 35 -52 -5 -3
-307 -8 -673 -12 l-665 -8 -46 49 c-54 57 -102 94 -123 94 -31 0 -66 -24 -81
-56 -9 -19 -19 -34 -24 -34 -11 0 -41 101 -41 138 0 35 -44 76 -101 92 -32 10
-40 6 -139 -62 -58 -39 -148 -100 -200 -136 -52 -35 -103 -71 -113 -80 -36
-31 -28 -1 9 35 110 108 190 246 214 368 6 33 16 79 21 102 5 23 9 60 9 82 0
23 3 41 8 41 4 0 18 -16 32 -35z"/>
</g>
</svg>
